<svg xmlns="http://www.w3.org/2000/svg" viewBox="0 0 512 512" width="512" height="512">
  <rect width="512" height="512" fill="#f5f5f7" rx="64"/>
  <rect x="96" y="120" width="320" height="280" rx="16" fill="none" stroke="#0071e3" stroke-width="12"/>
  <line x1="216" y1="120" x2="216" y2="400" stroke="#0071e3" stroke-width="8" stroke-dasharray="8"/>
  <rect x="128" y="168" width="48" height="32" rx="6" fill="#34c759"/>
  <rect x="128" y="230" width="48" height="32" rx="6" fill="#34c759"/>
  <rect x="128" y="292" width="48" height="32" rx="6" fill="#e0e0e4"/>
  <rect x="236" y="168" width="48" height="32" rx="6" fill="#34c759"/>
  <rect x="236" y="230" width="32" height="32" rx="6" fill="#f59e0b"/>
  <rect x="236" y="292" width="32" height="32" rx="6" fill="#e0e0e4"/>
  <rect x="316" y="168" width="56" height="32" rx="6" fill="#34c759"/>
  <rect x="316" y="230" width="56" height="32" rx="6" fill="#34c759"/>
  <rect x="316" y="292" width="56" height="32" rx="6" fill="#34c759"/>
  <circle cx="256" cy="466" r="32" fill="#34c759"/>
  <path d="M240 466l10 10 20-20" fill="none" stroke="white" stroke-width="6" stroke-linecap="round" stroke-linejoin="round"/>
</svg>