<svg xmlns="http://www.w3.org/2000/svg" viewBox="0 0 192 192" width="192" height="192">
  <rect width="192" height="192" fill="#f5f5f7" rx="32"/>
  <rect x="36" y="46" width="120" height="100" rx="8" fill="none" stroke="#0071e3" stroke-width="6"/>
  <line x1="76" y1="46" x2="76" y2="146" stroke="#0071e3" stroke-width="4" stroke-dasharray="4"/>
  <rect x="50" y="64" width="18" height="12" rx="3" fill="#34c759"/>
  <rect x="50" y="86" width="18" height="12" rx="3" fill="#34c759"/>
  <rect x="50" y="108" width="18" height="12" rx="3" fill="#e0e0e4"/>
  <rect x="86" y="64" width="18" height="12" rx="3" fill="#34c759"/>
  <rect x="86" y="86" width="12" height="12" rx="3" fill="#f59e0b"/>
  <rect x="86" y="108" width="12" height="12" rx="3" fill="#e0e0e4"/>
  <rect x="116" y="64" width="18" height="12" rx="3" fill="#34c759"/>
  <rect x="116" y="86" width="18" height="12" rx="3" fill="#34c759"/>
  <rect x="116" y="108" width="18" height="12" rx="3" fill="#34c759"/>
  <circle cx="96" cy="174" r="12" fill="#34c759"/>
  <path d="M90 174l4 4 8-8" fill="none" stroke="white" stroke-width="2" stroke-linecap="round" stroke-linejoin="round"/>
</svg>